<svg t="1706779501045" class="icon" viewBox="0 0 1024 1024" version="1.1" xmlns="http://www.w3.org/2000/svg" p-id="9962" width="250" height="250"><path d="M876.8 635.4c-11.8 0-21.5 9.6-21.5 21.4v214.5h-708V656.9c0-11.9-9.6-21.4-21.5-21.4-11.8 0-21.5 9.6-21.5 21.4v236c0 11.9 9.6 21.5 21.5 21.5h750.9c11.8 0 21.5-9.6 21.5-21.5v-236c0.1-11.9-9.5-21.5-21.4-21.5zM281.4 372l200.3-200.3v549.5c0 11.8 9.6 21.5 21.5 21.5s21.5-9.6 21.5-21.5V171.8L724.8 372c8.2 8.2 21.4 8.2 29.6 0 8.2-8.2 8.2-21.4 0-29.6L521.7 109.6c-0.9-1.5-2-3-3.3-4.3-2.1-2.1-4.4-3.6-7-4.6-2.6-1.1-5.4-1.7-8.4-1.7s-5.8 0.6-8.4 1.7c-2.5 1-4.9 2.6-7 4.6-1.3 1.3-2.4 2.8-3.3 4.3L251.8 342.4c-8.2 8.2-8.2 21.4 0 29.6 8.1 8.2 21.4 8.2 29.6 0z" p-id="9963"></path></svg>