<svg t="1711351270456" class="icon" viewBox="0 0 1024 1024" version="1.1" xmlns="http://www.w3.org/2000/svg" p-id="12114" width="250" height="250"><path d="M10.24 921.6h1003.52a10.24 10.24 0 0 1 10.24 10.24v81.92a10.24 10.24 0 0 1-10.24 10.24H10.24A10.24 10.24 0 0 1 0 1013.76v-81.92a10.24 10.24 0 0 1 10.24-10.24zM819.2 204.8h153.6A51.2 51.2 0 0 1 1024 256v512a51.2 51.2 0 0 1-51.2 51.2H819.2A51.2 51.2 0 0 1 768 768V256a51.2 51.2 0 0 1 51.2-51.2zM409.6 0h204.8a51.2 51.2 0 0 1 51.2 51.2V768a51.2 51.2 0 0 1-51.2 51.2H409.6a51.2 51.2 0 0 1-51.2-51.2V51.2A51.2 51.2 0 0 1 409.6 0zM51.2 409.6h153.6a51.2 51.2 0 0 1 51.2 51.2V768a51.2 51.2 0 0 1-51.2 51.2H51.2A51.2 51.2 0 0 1 0 768V460.8a51.2 51.2 0 0 1 51.2-51.2z" fill="#ffffff" p-id="12115"></path></svg>